<svg width="116" height="33" viewBox="0 0 116 33" fill="none" xmlns="http://www.w3.org/2000/svg">
<path d="M0.5 12.9V15.5H3V12.9H0.5Z" fill="#FFC700"/>
<path d="M12.1 4.5C10.5 4.5 9.3 5.2 8.5 6.2H8.4V0H6.4V15.5H8.4V10.2C8.4 8.1 9.7 6.6 11.7 6.6C13.5 6.6 14.6 8 14.6 9.8V15.5H16.6V9.4C16.7 6.4 14.8 4.5 12.1 4.5Z" fill="#FFC700"/>
<path d="M27.1 4.8H22.3V1.1H20.3V4.9H18.4V6.9H20.3V12.9C20.3 14.6 21.3 15.6 23 15.6H27.1V13.6H23.4C22.7 13.6 22.3 13.2 22.3 12.5V6.8H27.1V4.8Z" fill="#FFC700"/>
<path d="M41.6 4.6C40 4.6 38.7 5.4 38.1 6.7H38C37.4 5.5 36.2 4.6 34.6 4.6C33.2 4.6 32.1 5.4 31.5 6.4H31.4V4.8H29.5V15.4H31.5V10C31.5 8 32.5 6.5 34.1 6.5C35.6 6.5 36.5 7.5 36.5 9.1V15.4H38.5V9.8C38.5 7.4 39.9 6.5 41.1 6.5C42.6 6.5 43.5 7.5 43.5 9.1V15.4H45.5V8.9C45.6 6.4 44.1 4.6 41.6 4.6Z" fill="#FFC700"/>
<path d="M48.3 12.7C48.3 14.4 49.3 15.4 51.1 15.4H53.1V13.4H51.4C50.7 13.4 50.3 13 50.3 12.3V0H48.3V12.7Z" fill="#FFC700"/>
<path d="M29.4 19.7C28.5 18.6 27.2 17.9 25.5 17.9C22.4 17.9 20.1 20.2 20.1 23.5C20.1 26.8 22.4 29.1 25.5 29.1C27.3 29.1 28.5 28.3 29.3 27.2H29.4V28.8H31.4V18.2H29.4V19.7ZM25.8 27.1C23.6 27.1 22.2 25.5 22.2 23.5C22.2 21.5 23.6 19.9 25.8 19.9C28 19.9 29.4 21.5 29.4 23.5C29.4 25.4 28 27.1 25.8 27.1Z" fill="#FFC700"/>
<path d="M44.7 22C44.2 19.6 42.1 17.9 39.3 17.9C35.9 17.9 33.7 20.4 33.7 23.5C33.7 26.6 35.9 29.1 39.3 29.1C42.1 29.1 44.2 27.3 44.7 24.9H42.6C42.2 26.2 40.9 27.2 39.3 27.2C37.1 27.2 35.7 25.6 35.7 23.6C35.7 21.6 37.1 20 39.3 20C40.9 20 42.1 21 42.6 22.2H44.7V22Z" fill="#FFC700"/>
<path d="M55.6 19.7C54.7 18.6 53.4 17.9 51.7 17.9C48.6 17.9 46.3 20.2 46.3 23.5C46.3 26.8 48.6 29.1 51.7 29.1C53.5 29.1 54.7 28.3 55.5 27.2H55.6V28.8H57.6V18.2H55.6V19.7ZM52 27.1C49.8 27.1 48.4 25.5 48.4 23.5C48.4 21.5 49.8 19.9 52 19.9C54.2 19.9 55.6 21.5 55.6 23.5C55.6 25.4 54.1 27.1 52 27.1Z" fill="#FFC700"/>
<path d="M69.2 19.8C68.3 18.7 67 17.9 65.3 17.9C62.2 17.9 59.9 20.2 59.9 23.5C59.9 26.8 62.1 29.1 65.3 29.1C67 29.1 68.3 28.3 69.1 27.3H69.2V28.8H71.2V13.4H69.2V19.8ZM65.6 27.1C63.4 27.1 62 25.5 62 23.5C62 21.5 63.4 19.9 65.6 19.9C67.8 19.9 69.2 21.5 69.2 23.5C69.1 25.5 67.7 27.1 65.6 27.1Z" fill="#FFC700"/>
<path d="M78.8 17.9C75.5 17.9 73.3 20.4 73.3 23.5C73.3 26.5 75.4 29.1 78.8 29.1C81.3 29.1 83.3 27.8 84 25.5H81.9C81.4 26.5 80.3 27.1 78.9 27.1C77 27.1 75.6 25.8 75.5 24.2H84.3C84.5 20.6 82.3 17.9 78.8 17.9ZM78.8 19.8C80.5 19.8 81.8 20.8 82.1 22.4H75.6C75.9 20.9 77.1 19.8 78.8 19.8Z" fill="#FFC700"/>
<path d="M98.7 17.9C97.1 17.9 95.8 18.7 95.1 19.9H95C94.4 18.7 93.2 17.9 91.6 17.9C90.2 17.9 89.1 18.6 88.5 19.7V18.2H86.6V28.8H88.6V23.4C88.6 21.4 89.6 20 91.2 19.9C92.7 19.9 93.6 20.9 93.6 22.5V28.8H95.6V23.2C95.6 20.8 97 19.9 98.2 19.9C99.7 19.9 100.6 20.9 100.6 22.5V28.8H102.6V22.3C102.7 19.7 101.2 17.9 98.7 17.9Z" fill="#FFC700"/>
<path d="M109.9 27L106.3 18.1H104.1L108.9 29.7C108.6 30.6 108.2 30.9 107.2 30.9H104.7V32.9H107.2C109 32.9 110 32.1 110.7 30.3L115.4 18.1H113.3L109.9 27Z" fill="#FFC700"/>
</svg>
