<svg width="146" height="36" fill="none" xmlns="http://www.w3.org/2000/svg"><path d="M27.7 0v35.3h-7.6v-2.4C18.4 34.8 16 36 12.6 36 6 36 .5 30.2.5 22.7.5 15.2 6 9.4 12.6 9.4c3.4 0 5.9 1.2 7.5 3.1V0h7.6Zm-7.6 22.7c0-3.8-2.5-6.2-6-6.2s-6 2.4-6 6.2c0 3.8 2.5 6.2 6 6.2 3.5-.1 6-2.4 6-6.2ZM44.2 29.2c2.1 0 3.8-.8 4.8-1.9l6.1 3.5c-2.5 3.4-6.2 5.2-11 5.2-8.6 0-14-5.8-14-13.3 0-7.5 5.4-13.3 13.4-13.3 7.4 0 12.8 5.7 12.8 13.3 0 1.1-.1 2.1-.3 3H38.1c1 2.6 3.3 3.5 6.1 3.5Zm4.6-9.1c-.8-2.9-3.1-4-5.4-4-2.9 0-4.8 1.4-5.5 4h10.9ZM82.6 10.1l-9.3 25.2h-8.6l-9.3-25.2h8.4l5.3 16 5.3-16h8.2ZM83.9 10.1h7.6v25.2h-7.6V10.1ZM94.1 22.7c0-7.5 5.7-13.3 13.4-13.3 4.9 0 9.2 2.6 11.4 6.5l-6.6 3.8c-.9-1.8-2.7-2.8-4.9-2.8-3.3 0-5.7 2.4-5.7 5.8 0 3.5 2.4 5.8 5.7 5.8 2.2 0 4.1-1.1 4.9-2.8l6.6 3.8c-2.1 3.9-6.4 6.5-11.4 6.5-7.7 0-13.4-5.8-13.4-13.3ZM133.3 29.2c2.1 0 3.8-.8 4.8-1.9l6.1 3.5c-2.5 3.4-6.2 5.2-11 5.2-8.6 0-14-5.8-14-13.3 0-7.5 5.5-13.3 13.4-13.3 7.4 0 12.8 5.7 12.8 13.3 0 1.1-.1 2.1-.3 3h-17.9c1 2.6 3.3 3.5 6.1 3.5Zm4.7-9.1c-.8-2.9-3.1-4-5.4-4-2.9 0-4.8 1.4-5.5 4H138ZM83.9 0v10.1L91.5 0h-7.6Z" fill="#FFC700"/></svg>