<svg width="87" height="117" viewBox="0 0 87 117" fill="none" xmlns="http://www.w3.org/2000/svg">
<path d="M83.321 4.011H3.83003C2.06903 4.011 0.642029 5.438 0.642029 7.199V53.612C0.642029 55.375 2.06903 56.801 3.83003 56.801H83.322C85.084 56.801 86.511 55.374 86.511 53.612V7.199C86.511 5.438 85.083 4.011 83.321 4.011ZM8.89203 37.236H8.66603C6.90403 37.236 5.47703 35.807 5.47703 34.047V26.764C5.47703 25.003 6.90403 23.576 8.66603 23.576H8.89203V37.236ZM70.123 52.408H13.841V8.402H70.123V52.408ZM78.9 34.552C76.611 34.552 74.754 32.697 74.754 30.405C74.754 28.113 76.61 26.258 78.9 26.258C81.191 26.258 83.048 28.113 83.048 30.405C83.048 32.697 81.191 34.552 78.9 34.552Z" fill="#363636"/>
<path d="M55.154 0H31.997V2.758H55.154V0Z" fill="#363636"/>
<path d="M47.108 64.861V61.888H55.154V59.13H31.998V61.888H40.043V97.134C37.904 98.072 36.408 100.206 36.408 102.693V117H50.743V102.693C50.743 100.207 49.248 98.072 47.107 97.136V69.146H51.903L56.954 70.359V63.648L51.903 64.861H47.108Z" fill="#363636"/>
</svg>
