<svg width="48" height="31" fill="none" xmlns="http://www.w3.org/2000/svg"><g clip-path="url(#a)" fill="#000"><path d="m47.2 15.4-6.5-8.2c-.3-.4-.7-.6-1.2-.6h-8.3V1.5c0-.8-.7-1.5-1.5-1.5H2C1.2 0 .5.7.5 1.5S1.2 3 2 3h26.2v21.7H16.3c-.6-1.9-2.4-3.3-4.5-3.3-2.6 0-4.8 2.2-4.8 4.8 0 2.6 2.2 4.8 4.8 4.8 2.1 0 3.9-1.4 4.5-3.3h13.4c.8 0 1.5-.7 1.5-1.5V9.6h7.6l5.7 7.3v7.9h-2.2c-.6-1.9-2.4-3.3-4.5-3.3-2.6 0-4.8 2.2-4.8 4.8 0 2.6 2.1 4.8 4.8 4.8 2.1 0 3.9-1.4 4.5-3.3H46c.8 0 1.5-.7 1.5-1.5v-9.9c0-.4-.1-.7-.3-1ZM11.8 28c-1 0-1.8-.8-1.8-1.8s.8-1.8 1.8-1.8 1.8.8 1.8 1.8-.9 1.8-1.8 1.8Zm26.1 0c-1 0-1.8-.8-1.8-1.8s.8-1.8 1.8-1.8 1.8.8 1.8 1.8-.9 1.8-1.8 1.8Z"/><path d="M19.9 9.6c.8 0 1.5-.7 1.5-1.5s-.7-1.5-1.5-1.5H5.3c-.8 0-1.5.7-1.5 1.5s.7 1.5 1.5 1.5h14.6ZM18.2 14.7c0-.8-.7-1.5-1.5-1.5H2c-.8 0-1.5.7-1.5 1.5s.7 1.5 1.5 1.5h14.7c.8 0 1.5-.7 1.5-1.5Z"/></g><defs><clipPath id="a"><path fill="#fff" transform="translate(.5)" d="M0 0h47v31H0z"/></clipPath></defs></svg>