<svg width="192" height="130" viewBox="0 0 192 130" fill="none" xmlns="http://www.w3.org/2000/svg">
<path d="M52.7036 129.8C44.0636 129.8 36.5636 128.6 30.2036 126.2C23.8436 123.68 18.5636 120.26 14.3636 115.94C10.2836 111.62 7.16359 106.58 5.00359 100.82C2.84359 95.06 1.58359 88.88 1.22359 82.28C1.10359 79.04 0.983594 75.38 0.863594 71.3C0.863594 67.1 0.863594 62.9 0.863594 58.7C0.983594 54.38 1.10359 50.54 1.22359 47.18C1.58359 40.58 2.84359 34.46 5.00359 28.82C7.28359 23.06 10.5236 18.08 14.7236 13.88C19.0436 9.56 24.3236 6.19999 30.5636 3.79999C36.9236 1.39999 44.3036 0.199993 52.7036 0.199993C61.2236 0.199993 68.6036 1.39999 74.8436 3.79999C81.0836 6.19999 86.3036 9.56 90.5036 13.88C94.8236 18.08 98.1236 23.06 100.404 28.82C102.684 34.46 103.944 40.58 104.184 47.18C104.424 50.54 104.544 54.38 104.544 58.7C104.664 62.9 104.664 67.1 104.544 71.3C104.544 75.38 104.424 79.04 104.184 82.28C103.944 88.88 102.684 95.06 100.404 100.82C98.2436 106.58 95.0636 111.62 90.8636 115.94C86.7836 120.26 81.5636 123.68 75.2036 126.2C68.9636 128.6 61.4636 129.8 52.7036 129.8ZM52.7036 103.7C58.9436 103.7 63.4436 101.72 66.2036 97.76C69.0836 93.68 70.5836 88.22 70.7036 81.38C70.9436 77.9 71.0636 74.24 71.0636 70.4C71.1836 66.56 71.1836 62.72 71.0636 58.88C71.0636 55.04 70.9436 51.5 70.7036 48.26C70.5836 41.66 69.0836 36.32 66.2036 32.24C63.4436 28.16 58.9436 26.06 52.7036 25.94C46.4636 26.06 41.9636 28.16 39.2036 32.24C36.4436 36.32 34.9436 41.66 34.7036 48.26C34.5836 51.5 34.4636 55.04 34.3436 58.88C34.3436 62.72 34.3436 66.56 34.3436 70.4C34.4636 74.24 34.5836 77.9 34.7036 81.38C34.9436 88.22 36.5036 93.68 39.3836 97.76C42.2636 101.72 46.7036 103.7 52.7036 103.7ZM163.887 128C162.687 128 161.607 127.58 160.647 126.74C159.807 125.9 159.387 124.82 159.387 123.5V37.82L134.727 56.72C133.647 57.56 132.507 57.86 131.307 57.62C130.227 57.38 129.267 56.72 128.427 55.64L117.807 41.78C117.087 40.7 116.787 39.56 116.907 38.36C117.147 37.04 117.867 36.02 119.067 35.3L160.467 3.26C161.187 2.78 161.847 2.48 162.447 2.36C163.167 2.11999 163.947 1.99999 164.787 1.99999H187.287C188.487 1.99999 189.507 2.41999 190.347 3.26C191.307 4.09999 191.787 5.17999 191.787 6.5V123.5C191.787 124.82 191.307 125.9 190.347 126.74C189.507 127.58 188.487 128 187.287 128H163.887Z" fill="white"/>
</svg>
