<svg width="32" height="22" viewBox="0 0 32 22" fill="none" xmlns="http://www.w3.org/2000/svg">
<g clip-path="url(#clip0_13120_640)">
<path d="M30.8 7.38892L27.3 7.58892L24.1 2.68892C24 2.48892 23.7 2.38892 23.5 2.38892C23.3 2.38892 23 2.48892 22.9 2.68892L19.7 7.58892H16.2C15.8 7.58892 15.5 7.88892 15.5 8.28892C15.5 8.38892 15.5 8.38892 15.5 8.48892L17.4 15.2889C17.6 15.9889 18.1 16.3889 18.8 16.3889H28.2C28.9 16.3889 29.4 15.9889 29.6 15.2889L31.5 8.38892C31.5 8.28892 31.5 8.28892 31.5 8.18892C31.5 7.78892 31.2 7.38892 30.8 7.38892ZM23.5 4.28892L25.7 7.48892H21.4L23.5 4.28892Z" fill="black"/>
</g>
<circle cx="11" cy="11.3889" r="10.5" fill="white"/>
<path d="M7.8996 15.8889C7.80627 15.8889 7.72693 15.8609 7.6616 15.8049C7.6056 15.7396 7.5776 15.6602 7.5776 15.5669V15.1189C7.5776 15.0349 7.60093 14.9416 7.6476 14.8389C7.69427 14.7362 7.7876 14.6242 7.9276 14.5029L10.8956 11.5349C11.3716 11.1336 11.7449 10.7929 12.0156 10.5129C12.2956 10.2236 12.4916 9.94825 12.6036 9.68692C12.7249 9.42558 12.7856 9.15492 12.7856 8.87492C12.7856 8.34292 12.6363 7.92292 12.3376 7.61492C12.0389 7.29758 11.5956 7.13892 11.0076 7.13892C10.6343 7.13892 10.3123 7.21825 10.0416 7.37692C9.77094 7.52625 9.55627 7.73625 9.3976 8.00692C9.24827 8.26825 9.15027 8.56692 9.1036 8.90292C9.08493 9.02425 9.0336 9.10825 8.9496 9.15492C8.87494 9.20158 8.80494 9.22492 8.7396 9.22492H8.0116C7.9276 9.22492 7.8576 9.20158 7.8016 9.15492C7.7456 9.09892 7.7176 9.03358 7.7176 8.95892C7.72693 8.60425 7.8016 8.24958 7.9416 7.89492C8.0816 7.53092 8.28693 7.20425 8.5576 6.91492C8.8376 6.62558 9.17827 6.39225 9.5796 6.21492C9.99027 6.02825 10.4663 5.93492 11.0076 5.93492C11.7449 5.93492 12.3469 6.07025 12.8136 6.34092C13.2896 6.60225 13.6396 6.95225 13.8636 7.39092C14.0876 7.82958 14.1996 8.31025 14.1996 8.83292C14.1996 9.24358 14.1296 9.62158 13.9896 9.96692C13.8496 10.3029 13.6443 10.6342 13.3736 10.9609C13.1123 11.2782 12.7856 11.6049 12.3936 11.9409L9.7056 14.6709H14.0736C14.1763 14.6709 14.2556 14.6989 14.3116 14.7549C14.3769 14.8109 14.4096 14.8902 14.4096 14.9929V15.5669C14.4096 15.6602 14.3769 15.7396 14.3116 15.8049C14.2556 15.8609 14.1763 15.8889 14.0736 15.8889H7.8996Z" fill="black"/>
<defs>
<clipPath id="clip0_13120_640">
<rect width="16" height="14" fill="white" transform="translate(15.5 2.38892)"/>
</clipPath>
</defs>
</svg>
